<?xml version="1.0" encoding="UTF-8" standalone="no"?>
<svg
   xmlns:dc="http://purl.org/dc/elements/1.1/"
   xmlns:cc="http://creativecommons.org/ns#"
   xmlns:rdf="http://www.w3.org/1999/02/22-rdf-syntax-ns#"
   xmlns:svg="http://www.w3.org/2000/svg"
   xmlns="http://www.w3.org/2000/svg"
   xmlns:sodipodi="http://sodipodi.sourceforge.net/DTD/sodipodi-0.dtd"
   xmlns:inkscape="http://www.inkscape.org/namespaces/inkscape"
   version="1.1"
   id="svg885"
   width="514.3147"
   height="514.3147"
   viewBox="0 0 514.3147 514.31469"
   sodipodi:docname="sbc-logo.svg"
   inkscape:version="1.0.2 (e86c870879, 2021-01-15, custom)">
  <metadata
     id="metadata891">
    <rdf:RDF>
      <cc:Work
         rdf:about="">
        <dc:format>image/svg+xml</dc:format>
        <dc:type
           rdf:resource="http://purl.org/dc/dcmitype/StillImage" />
        <dc:title></dc:title>
      </cc:Work>
    </rdf:RDF>
  </metadata>
  <defs
     id="defs889" />
  <sodipodi:namedview
     pagecolor="#ffffff"
     bordercolor="#666666"
     borderopacity="1"
     objecttolerance="10"
     gridtolerance="10"
     guidetolerance="10"
     inkscape:pageopacity="0"
     inkscape:pageshadow="2"
     inkscape:window-width="1600"
     inkscape:window-height="844"
     id="namedview887"
     showgrid="false"
     inkscape:zoom="0.62988282"
     inkscape:cx="209.82808"
     inkscape:cy="295.14557"
     inkscape:window-x="0"
     inkscape:window-y="0"
     inkscape:window-maximized="1"
     inkscape:current-layer="g893"
     inkscape:document-rotation="0"
     fit-margin-top="0"
     fit-margin-left="0"
     fit-margin-right="0"
     fit-margin-bottom="0" />
  <g
     inkscape:groupmode="layer"
     inkscape:label="Image"
     id="g893"
     transform="translate(1.2574842,-18.563063)">
    <g
       id="g1444"
       transform="translate(0,19.775153)">
      <path
         style="color:#000000;font-style:normal;font-variant:normal;font-weight:normal;font-stretch:normal;font-size:medium;line-height:normal;font-family:sans-serif;font-variant-ligatures:normal;font-variant-position:normal;font-variant-caps:normal;font-variant-numeric:normal;font-variant-alternates:normal;font-variant-east-asian:normal;font-feature-settings:normal;font-variation-settings:normal;text-indent:0;text-align:start;text-decoration:none;text-decoration-line:none;text-decoration-style:solid;text-decoration-color:#000000;letter-spacing:normal;word-spacing:normal;text-transform:none;writing-mode:lr-tb;direction:ltr;text-orientation:mixed;dominant-baseline:auto;baseline-shift:baseline;text-anchor:start;white-space:normal;shape-padding:0;shape-margin:0;inline-size:0;clip-rule:nonzero;display:inline;overflow:visible;visibility:visible;opacity:1;isolation:auto;mix-blend-mode:normal;color-interpolation:sRGB;color-interpolation-filters:linearRGB;solid-color:#000000;solid-opacity:1;vector-effect:none;fill:#ffffff;fill-opacity:1;fill-rule:nonzero;stroke:#000000;stroke-width:3.77953;stroke-linecap:round;stroke-linejoin:round;stroke-miterlimit:4;stroke-dasharray:none;stroke-dashoffset:0;stroke-opacity:1;color-rendering:auto;image-rendering:auto;shape-rendering:auto;text-rendering:auto;enable-background:accumulate;stop-color:#000000;stop-opacity:1"
         d="m 244.98828,20.453125 a 19.844504,19.844504 0 0 0 -14.64453,6.570313 L 34.572266,244.61328 l 0.160156,-0.17383 c 0,0 -26.2224948,28.17636 -32.9140626,71.85352 A 19.84252,19.84252 0 0 0 1.5917969,319.125 C 0.7392847,325.20823 0.43985814,331.38477 0.75390625,337.53516 2.7035136,375.71667 27.194275,417.43893 72.029297,425.62891 l 218.804683,64.98828 a 19.844504,19.844504 0 0 0 20.94532,-6.38281 L 503.80469,251.81445 a 19.844504,19.844504 0 0 0 3.47265,-19.07031 c 0,0 -6.20295,-19.88723 0.56641,-39.18555 a 19.84252,19.84252 0 0 0 -12.15625,-25.29297 19.84252,19.84252 0 0 0 -25.29297,12.15626 c -7.52831,21.46197 -5.82531,41.72843 -3.53906,53.80859 L 289.54688,448.83789 82.847656,387.44336 a 19.844504,19.844504 0 0 0 -2.582031,-0.58203 c -24.391414,-3.81528 -38.67556,-27.82128 -39.876953,-51.34961 -0.600697,-11.76417 2.502023,-22.09203 7.25,-28.05078 4.55868,-5.72118 10.075381,-9.10663 22.279297,-8.46094 l 205.763671,57.76367 a 19.844504,19.844504 0 0 0 20.33984,-6.08789 L 506.33008,108.68945 A 19.844504,19.844504 0 0 0 495.70703,76.314453 L 249.44727,20.935547 a 19.844504,19.844504 0 0 0 -4.45899,-0.482422 z M 252.07422,62.201172 454.57617,107.74023 274.31055,315.1582 78.195312,260.10547 a 19.844504,19.844504 0 0 0 -3.585937,-0.6582 z"
         id="path897" />
      <path
         style="color:#000000;font-style:normal;font-variant:normal;font-weight:normal;font-stretch:normal;font-size:medium;line-height:normal;font-family:sans-serif;font-variant-ligatures:normal;font-variant-position:normal;font-variant-caps:normal;font-variant-numeric:normal;font-variant-alternates:normal;font-variant-east-asian:normal;font-feature-settings:normal;font-variation-settings:normal;text-indent:0;text-align:start;text-decoration:none;text-decoration-line:none;text-decoration-style:solid;text-decoration-color:#000000;letter-spacing:normal;word-spacing:normal;text-transform:none;writing-mode:lr-tb;direction:ltr;text-orientation:mixed;dominant-baseline:auto;baseline-shift:baseline;text-anchor:start;white-space:normal;shape-padding:0;shape-margin:0;inline-size:0;clip-rule:nonzero;display:inline;overflow:visible;visibility:visible;opacity:1;isolation:auto;mix-blend-mode:normal;color-interpolation:sRGB;color-interpolation-filters:linearRGB;solid-color:#000000;solid-opacity:1;vector-effect:none;fill:#ffffff;fill-opacity:1;fill-rule:nonzero;stroke:#000000;stroke-width:3.77953;stroke-linecap:round;stroke-linejoin:round;stroke-miterlimit:4;stroke-dasharray:none;stroke-dashoffset:0;stroke-opacity:1;color-rendering:auto;image-rendering:auto;shape-rendering:auto;text-rendering:auto;enable-background:accumulate;stop-color:#000000;stop-opacity:1"
         d="m 356.91781,142.54492 a 19.842501,19.842501 0 0 0 -4.89844,0.60156 c 0,0 -62.50424,15.08198 -114.67187,39.70899 -1.05418,-8.8715 -3.17186,-18.38667 -7.49415,-27.73633 a 19.842501,19.842501 0 0 0 -26.33789,-9.68555 19.842501,19.842501 0 0 0 -9.68359,26.33789 c 6.0701,13.13041 2.98633,41.25977 2.98633,41.25977 a 19.844485,19.844485 0 0 0 30.28515,20.26758 c 41.748,-26.99348 134.60938,-51.66992 134.60938,-51.66992 a 19.842501,19.842501 0 0 0 14.39453,-24.08789 19.842501,19.842501 0 0 0 -19.18945,-14.9961 z"
         id="path901" />
    </g>
  </g>
</svg>
